<?xml version="1.0" encoding="UTF-8"?>
<svg width="24" height="24" viewBox="0 0 24 24" fill="none" xmlns="http://www.w3.org/2000/svg">
    <path d="M9.88 9.88C9.58552 10.1547 9.34413 10.4842 9.1694 10.8501C8.99468 11.2161 8.89012 11.6112 8.86169 12.0151C8.83326 12.419 8.88153 12.8242 9.00361 13.2081C9.12569 13.5921 9.31872 13.9475 9.5719 14.2523C9.82509 14.5571 10.1333 14.8049 10.478 14.9797C10.8227 15.1545 11.1968 15.2531 11.577 15.2694C11.9572 15.2857 12.336 15.2194 12.6919 15.0746C13.0478 14.9298 13.3739 14.7092 13.65 14.425M17.94 17.94C16.2306 19.243 14.1491 19.9649 12 20C5 20 1 12 1 12C2.24389 9.68192 3.96914 7.65663 6.06 6.06L17.94 17.94ZM9.9 4.24C10.5883 4.0789 11.2931 3.99834 12 4C19 4 23 12 23 12C22.393 13.1356 21.6691 14.2047 20.84 15.19L9.9 4.24Z" stroke="#4E4E4E" stroke-width="2" stroke-linecap="round" stroke-linejoin="round"/>
    <path d="M1 1L23 23" stroke="#4E4E4E" stroke-width="2" stroke-linecap="round" stroke-linejoin="round"/>
</svg> 